<?xml version="1.0" standalone="no"?><!DOCTYPE svg PUBLIC "-//W3C//DTD SVG 1.1//EN" "http://www.w3.org/Graphics/SVG/1.1/DTD/svg11.dtd"><svg t="1591179504756" class="icon" viewBox="0 0 1024 1024" version="1.1" xmlns="http://www.w3.org/2000/svg" p-id="2021" xmlns:xlink="http://www.w3.org/1999/xlink" width="200" height="200"><defs><style type="text/css"></style></defs><path d="M909.215 519.191c-1.5795 209.4615-169.1685 383.4495-378.846 391.3155-208.9935 7.8435-389.4165-158.7465-403.434-366.102C112.85 336.077 272.843 149.57 480.0005 129.3155c207.468-20.2815 399.7485 133.0875 426.213 339.795 2.124 16.596 2.8665 33.336 3.0015 50.0805 0.2115 29.0025 45.2205 29.0205 45 0-1.548-205.8075-147.8475-386.568-350.0865-427.95C402.092 49.904 193.2605 161.9855 114.5195 352.0115 34.721 544.6025 105.794 767.69 277.307 883.565c172.0755 116.253 409.05 86.283 553.1895-59.9085 79.5735-80.7165 122.868-191.673 123.714-304.4655 0.2115-29.061-44.7885-29.043-44.9955 0z" p-id="2022"></path><path d="M272.429 541.673h490.5225c29.016 0 29.016-45.0315 0-45.0315H272.429c-29.0205 0-29.0205 45.0315 0 45.0315z" p-id="2023"></path><path d="M540.215 764.423V273.896c0-29.0205-45.027-29.0205-45.027 0v490.527c-0.0045 29.016 45.027 29.016 45.027 0z" p-id="2024"></path></svg>