<?xml version="1.0" standalone="no"?><!DOCTYPE svg PUBLIC "-//W3C//DTD SVG 1.1//EN" "http://www.w3.org/Graphics/SVG/1.1/DTD/svg11.dtd"><svg t="1591179527575" class="icon" viewBox="0 0 1024 1024" version="1.1" xmlns="http://www.w3.org/2000/svg" p-id="2509" xmlns:xlink="http://www.w3.org/1999/xlink" width="200" height="200"><defs><style type="text/css"></style></defs><path d="M830.57777813 238.93333333a45.51111147 45.51111147 0 0 1 45.5111104 45.51111147v455.1111104a45.51111147 45.51111147 0 0 1-45.5111104 45.51111147H193.42222187a45.51111147 45.51111147 0 0 1-45.5111104-45.51111147V284.4444448a45.51111147 45.51111147 0 0 1 45.5111104-45.51111147h637.15555626m0-45.51111146H193.42222187a91.02222187 91.02222187 0 0 0-91.02222187 91.02222293v455.1111104a91.02222187 91.02222187 0 0 0 91.02222187 91.02222293h637.15555626a91.02222187 91.02222187 0 0 0 91.02222187-91.02222293V284.4444448a91.02222187 91.02222187 0 0 0-91.02222187-91.02222293z" p-id="2510"></path><path d="M898.8444448 398.22222187H125.1555552a22.7555552 22.7555552 0 0 1 0-45.5111104h773.6888896a22.7555552 22.7555552 0 0 1 0 45.5111104z" p-id="2511"></path></svg>