<?xml version="1.0" standalone="no"?><!DOCTYPE svg PUBLIC "-//W3C//DTD SVG 1.1//EN" "http://www.w3.org/Graphics/SVG/1.1/DTD/svg11.dtd"><svg t="1591179494934" class="icon" viewBox="0 0 1024 1024" version="1.1" xmlns="http://www.w3.org/2000/svg" p-id="1899" xmlns:xlink="http://www.w3.org/1999/xlink" width="200" height="200"><defs><style type="text/css"></style></defs><path d="M754.72592555 47.8814811H172.18370333a48.54518557 48.54518557 0 0 0-48.54518443 48.54518556v776.72296334a48.54518557 48.54518557 0 0 0 48.54518443 48.54518443h48.54518556v48.54518557a48.54518557 48.54518557 0 0 0 48.54518556 48.54518556 48.54518557 48.54518557 0 0 0 48.54518443-48.54518556v-48.54518557h436.90666667a145.63555555 145.63555555 0 0 0 145.63555555-145.63555555V193.51703666a145.63555555 145.63555555 0 0 0-145.63555555-145.63555556z m-145.63555556 776.72296334H220.72888889V144.97185223h388.3614811z m194.18074112-48.54518556a48.54518557 48.54518557 0 0 1-48.54518556 48.54518556h-48.54518443V144.97185223h48.54518443a48.54518557 48.54518557 0 0 1 48.54518556 48.54518443z" p-id="1900"></path></svg>