<?xml version="1.0" standalone="no"?><!DOCTYPE svg PUBLIC "-//W3C//DTD SVG 1.1//EN" "http://www.w3.org/Graphics/SVG/1.1/DTD/svg11.dtd"><svg t="1592024921128" class="icon" viewBox="0 0 1024 1024" version="1.1" xmlns="http://www.w3.org/2000/svg" p-id="1715" xmlns:xlink="http://www.w3.org/1999/xlink" width="200" height="200"><defs><style type="text/css"></style></defs><path d="M341.333333 551.936c39.765333 14.097067 68.266667 52.0192 68.266667 96.597333v102.4a102.4 102.4 0 0 1-204.8 0v-102.4c0-44.578133 28.501333-82.500267 68.266667-96.597333v-78.267733C204.014933 456.3968 153.6 387.754667 153.6 307.2c0-93.320533 67.6864-170.666667 153.6-170.666667s153.6 77.346133 153.6 170.666667c0 80.554667-50.414933 149.162667-119.466667 166.468267v78.301866z m307.2 0v-77.141333c-77.312-14.1312-136.533333-75.3664-136.533333-150.528V170.666667h68.266667v153.6c0 36.420267 28.091733 68.608 68.266666 80.4864V170.666667h68.266667v234.0864c40.174933-11.8784 68.266667-44.066133 68.266667-80.4864V171.861333h68.266666V324.266667c0 75.1616-59.221333 136.3968-136.533333 150.528v77.141333c39.765333 14.097067 68.266667 52.0192 68.266667 96.597333v102.4a102.4 102.4 0 0 1-204.8 0v-102.4c0-44.578133 28.501333-82.500267 68.266666-96.597333zM307.2 409.6c46.045867 0 85.333333-44.919467 85.333333-102.4S353.245867 204.8 307.2 204.8 221.866667 249.719467 221.866667 307.2s39.287467 102.4 85.333333 102.4z m375.466667 204.8a34.133333 34.133333 0 0 0-34.133334 34.133333v102.4a34.133333 34.133333 0 0 0 68.266667 0v-102.4a34.133333 34.133333 0 0 0-34.133333-34.133333zM307.2 614.4a34.133333 34.133333 0 0 0-34.133333 34.133333v102.4a34.133333 34.133333 0 0 0 68.266666 0v-102.4a34.133333 34.133333 0 0 0-34.133333-34.133333z" p-id="1716"></path></svg>