<?xml version="1.0" standalone="no"?><!DOCTYPE svg PUBLIC "-//W3C//DTD SVG 1.1//EN" "http://www.w3.org/Graphics/SVG/1.1/DTD/svg11.dtd"><svg t="1592135968346" class="icon" viewBox="0 0 1024 1024" version="1.1" xmlns="http://www.w3.org/2000/svg" p-id="3146" xmlns:xlink="http://www.w3.org/1999/xlink" width="200" height="200"><defs><style type="text/css"></style></defs><path d="M327.202133 345.224533c-19.831467-9.284267-34.6112-9.762133-51.0976-2.525866-56.661333 24.849067-74.717867 65.2288-74.717866 161.109333 0 156.672 138.5472 284.672 310.613333 284.672 172.066133 0 310.613333-128 310.613333-284.672 0-89.326933-24.576-146.602667-71.68-159.6416-13.653333-3.754667-31.880533-0.682667-51.6096 7.7824 5.188267 15.0528 9.045333 30.788267 11.3664 46.933333 7.850667-4.5056 15.36-9.284267 22.4256-14.336l35.6352 50.0736c-66.082133 47.0016-158.9248 73.966933-258.048 73.966934-97.655467 0-189.2352-26.146133-255.146666-71.953067l35.0208-50.449067c7.168 4.949333 14.677333 9.659733 22.596266 14.062934a260.096 260.096 0 0 1 14.0288-55.022934z m345.088-48.674133c32.324267-14.5408 64.9216-19.933867 94.993067-11.605333 81.339733 22.528 116.770133 105.096533 116.770133 218.862933 0 191.726933-167.082667 346.112-372.053333 346.112-204.970667 0-372.053333-154.385067-372.053333-346.112 0-117.691733 28.296533-180.906667 111.479466-217.3952 37.546667-16.452267 68.027733-14.062933 104.448 4.1984 36.352-51.882667 91.818667-86.186667 156.125867-86.186667h0.512c66.594133 0 123.665067 37.102933 159.744 92.16z m-299.9296 129.365333c41.745067 13.687467 88.9856 21.230933 138.3424 21.230934 50.3808 0 98.577067-7.850667 140.936534-22.084267-4.778667-86.016-65.3312-159.197867-139.127467-159.197867H512c-74.171733 0-134.826667 72.8064-139.639467 160.0512z" p-id="3147"></path></svg>