<?xml version="1.0" standalone="no"?><!DOCTYPE svg PUBLIC "-//W3C//DTD SVG 1.1//EN" "http://www.w3.org/Graphics/SVG/1.1/DTD/svg11.dtd"><svg t="1592024923889" class="icon" viewBox="0 0 1024 1024" version="1.1" xmlns="http://www.w3.org/2000/svg" p-id="1837" xmlns:xlink="http://www.w3.org/1999/xlink" width="200" height="200"><defs><style type="text/css"></style></defs><path d="M580.266667 785.066667V238.933333H238.933333v546.133334h341.333334z m68.266666-435.2l188.757334 117.9648a34.133333 34.133333 0 0 1 16.042666 28.945066V819.2a34.133333 34.133333 0 0 1-34.133333 34.133333H204.8a34.133333 34.133333 0 0 1-34.133333-34.133333V204.8a34.133333 34.133333 0 0 1 34.133333-34.133333h409.6a34.133333 34.133333 0 0 1 34.133333 34.133333v145.066667z m0 80.4864V785.066667h136.533334v-269.380267l-136.533334-85.333333zM307.2 341.333333h204.8v68.266667H307.2v-68.266667z m0 136.533334h204.8v68.266666H307.2v-68.266666z" p-id="1838"></path></svg>