<?xml version="1.0" standalone="no"?><!DOCTYPE svg PUBLIC "-//W3C//DTD SVG 1.1//EN" "http://www.w3.org/Graphics/SVG/1.1/DTD/svg11.dtd"><svg t="1591179521368" class="icon" viewBox="0 0 1024 1024" version="1.1" xmlns="http://www.w3.org/2000/svg" p-id="2264" xmlns:xlink="http://www.w3.org/1999/xlink" width="200" height="200"><defs><style type="text/css"></style></defs><path d="M689.777778 512c0-66.673778 54.229333-120.888889 120.888889-120.888889s120.888889 54.229333 120.888889 120.888889c0 66.659556-54.229333 120.888889-120.888889 120.888889s-120.888889-54.229333-120.888889-120.888889z m184.888889 0c0-35.285333-28.714667-64-64-64s-64 28.714667-64 64 28.714667 64 64 64 64-28.714667 64-64zM391.111111 512c0-66.673778 54.229333-120.888889 120.888889-120.888889s120.888889 54.229333 120.888889 120.888889c0 66.659556-54.229333 120.888889-120.888889 120.888889s-120.888889-54.229333-120.888889-120.888889z m184.888889 0c0-35.285333-28.714667-64-64-64s-64 28.714667-64 64 28.714667 64 64 64 64-28.714667 64-64zM92.444444 512c0-66.673778 54.229333-120.888889 120.888889-120.888889s120.888889 54.229333 120.888889 120.888889c0 66.659556-54.229333 120.888889-120.888889 120.888889S92.444444 578.659556 92.444444 512z m184.888889 0c0-35.285333-28.714667-64-64-64s-64 28.714667-64 64 28.714667 64 64 64 64-28.714667 64-64z" p-id="2265"></path></svg>