<?xml version="1.0" standalone="no"?><!DOCTYPE svg PUBLIC "-//W3C//DTD SVG 1.1//EN" "http://www.w3.org/Graphics/SVG/1.1/DTD/svg11.dtd"><svg t="1592025627883" class="icon" viewBox="0 0 1024 1024" version="1.1" xmlns="http://www.w3.org/2000/svg" p-id="1952" xmlns:xlink="http://www.w3.org/1999/xlink" width="200" height="200"><defs><style type="text/css"></style></defs><path d="M238.933333 580.266667h157.627734l34.133333 68.266666h162.6112l34.133333-68.266666H785.066667v-204.8H238.933333v204.8z m0 68.266666v170.666667h546.133334v-170.666667h-115.438934l-34.133333 68.266667h-246.9888l-34.133333-68.266667H238.933333z m102.4-341.333333a170.666667 170.666667 0 0 1 341.333334 0h136.533333a34.133333 34.133333 0 0 1 34.133333 34.133333v512a34.133333 34.133333 0 0 1-34.133333 34.133334H204.8a34.133333 34.133333 0 0 1-34.133333-34.133334V341.333333a34.133333 34.133333 0 0 1 34.133333-34.133333h136.533333z m68.266667 0h204.8a102.4 102.4 0 0 0-204.8 0z" p-id="1953"></path></svg>