<?xml version="1.0" standalone="no"?><!DOCTYPE svg PUBLIC "-//W3C//DTD SVG 1.1//EN" "http://www.w3.org/Graphics/SVG/1.1/DTD/svg11.dtd"><svg t="1592024904961" class="icon" viewBox="0 0 1024 1024" version="1.1" xmlns="http://www.w3.org/2000/svg" p-id="1349" xmlns:xlink="http://www.w3.org/1999/xlink" width="200" height="200"><defs><style type="text/css"></style></defs><path d="M682.666667 341.333333v136.533334h-68.266667v-136.533334h-204.8v136.533334h-68.266667v-136.533334H267.1616l-26.282667 443.733334h542.242134l-26.282667-443.733334H682.666667z m-337.92-68.266666a170.734933 170.734933 0 0 1 334.506666 0h109.7728a34.133333 34.133333 0 0 1 34.065067 32.085333l30.3104 512a34.133333 34.133333 0 0 1-34.065067 36.181333H204.663467a34.133333 34.133333 0 0 1-34.065067-36.181333l30.3104-512A34.133333 34.133333 0 0 1 234.973867 273.066667H344.746667z m70.656 0h193.194666a102.434133 102.434133 0 0 0-193.194666 0z" p-id="1350"></path></svg>