<?xml version="1.0" standalone="no"?><!DOCTYPE svg PUBLIC "-//W3C//DTD SVG 1.1//EN" "http://www.w3.org/Graphics/SVG/1.1/DTD/svg11.dtd"><svg t="1591179518240" class="icon" viewBox="0 0 1024 1024" version="1.1" xmlns="http://www.w3.org/2000/svg" p-id="2145" xmlns:xlink="http://www.w3.org/1999/xlink" width="200" height="200"><defs><style type="text/css"></style></defs><path d="M133.547 530.347H85.333V512A426.667 426.667 0 0 1 450.56 89.6v48.64A379.307 379.307 0 0 0 133.12 512c0 5.973 0.427 12.373 0.427 18.347z m646.4 249.6A384 384 0 0 1 659.2 861.013a378.453 378.453 0 0 1-389.12-57.6 384 384 0 0 1-83.2-96.853 402.773 402.773 0 0 1-34.56-75.52l368.213-81.493 37.547-8.534V136.107a376.747 376.747 0 0 1 101.12 26.88A376.747 376.747 0 0 1 861.013 364.8a377.6 377.6 0 0 1 0 294.4 384 384 0 0 1-81.066 120.747zM512 502.613l-418.56 92.16A426.667 426.667 0 1 0 512 85.333z" p-id="2146"></path></svg>