<?xml version="1.0" standalone="no"?><!DOCTYPE svg PUBLIC "-//W3C//DTD SVG 1.1//EN" "http://www.w3.org/Graphics/SVG/1.1/DTD/svg11.dtd"><svg t="1592024917121" class="icon" viewBox="0 0 1024 1024" version="1.1" xmlns="http://www.w3.org/2000/svg" p-id="1593" xmlns:xlink="http://www.w3.org/1999/xlink" width="200" height="200"><defs><style type="text/css"></style></defs><path d="M648.533333 750.933333h238.933334v68.266667h-238.933334v-68.266667z m148.7872-449.467733c50.517333-27.409067 115.131733-11.1616 144.315734 36.352l0.4096 0.682667c28.637867 47.445333 10.922667 107.7248-39.594667 134.656l-560.776533 299.008c-33.655467 17.92-75.093333 17.134933-107.9296-2.082134l-133.188267-77.892266a66.3552 66.3552 0 0 1-23.108267-22.459734c-18.909867-30.788267-7.68-70.109867 25.053867-87.893333l34.474667-18.705067a74.410667 74.410667 0 0 1 56.797866-5.666133l84.650667 25.6 124.484267-67.584-189.44-144.1792a50.619733 50.619733 0 0 1-12.526934-13.789867c-14.574933-23.722667-5.905067-54.101333 19.3536-67.822933L297.472 247.808a74.410667 74.410667 0 0 1 67.652267-1.4336l281.258666 137.0112 150.9376-81.92zM267.946667 711.850667c11.025067 6.3488 24.951467 6.621867 36.283733 0.682666l565.486933-296.004266c16.7936-8.8064 22.698667-28.501333 13.141334-43.997867l-0.1024-0.2048c-9.8304-15.701333-31.5392-21.060267-48.5376-12.014933l-169.028267 90.112-34.0992 0.682666L330.24 307.2l-55.466667 29.559467 211.114667 157.7984-4.608 53.828266-183.9104 98.030934-28.672 2.798933-100.352-29.7984-31.812267 16.964267 131.413334 75.4688z" p-id="1594"></path></svg>